<?xml version="1.0" encoding="UTF-8" standalone="no"?>
<!-- Created with Inkscape (http://www.inkscape.org/) -->

<svg
   xmlns:dc="http://purl.org/dc/elements/1.1/"
   xmlns:cc="http://creativecommons.org/ns#"
   xmlns:rdf="http://www.w3.org/1999/02/22-rdf-syntax-ns#"
   xmlns:svg="http://www.w3.org/2000/svg"
   xmlns="http://www.w3.org/2000/svg"
   xmlns:sodipodi="http://sodipodi.sourceforge.net/DTD/sodipodi-0.dtd"
   xmlns:inkscape="http://www.inkscape.org/namespaces/inkscape"
   width="100"
   height="100"
   viewBox="0 0 100 100"
   version="1.1"
   id="svg2238"
   inkscape:version="0.92.3 (2405546, 2018-03-11)"
   sodipodi:docname="pic-templ.svg">
  <defs
     id="defs2232" />
  <sodipodi:namedview
     id="base"
     pagecolor="#ffffff"
     bordercolor="#666666"
     borderopacity="1.0"
     inkscape:pageopacity="0.0"
     inkscape:pageshadow="2"
     inkscape:zoom="1.979899"
     inkscape:cx="54.127979"
     inkscape:cy="1.4352074"
     inkscape:document-units="px"
     inkscape:current-layer="layer1"
     showgrid="true"
     units="px"
     inkscape:window-width="1233"
     inkscape:window-height="693"
     inkscape:window-x="47"
     inkscape:window-y="27"
     inkscape:window-maximized="1"
     inkscape:snap-bbox="true"
     inkscape:snap-nodes="false"
     inkscape:bbox-nodes="true"
     inkscape:bbox-paths="false"
     showguides="false">
    <inkscape:grid
       type="xygrid"
       id="grid3765" />
    <sodipodi:guide
       position="70,110"
       orientation="0,1"
       id="guide4318"
       inkscape:locked="false" />
  </sodipodi:namedview>
  <metadata
     id="metadata2235">
    <rdf:RDF>
      <cc:Work
         rdf:about="">
        <dc:format>image/svg+xml</dc:format>
        <dc:type
           rdf:resource="http://purl.org/dc/dcmitype/StillImage" />
        <dc:title></dc:title>
      </cc:Work>
    </rdf:RDF>
  </metadata>
  <g
     inkscape:label="Layer 1"
     inkscape:groupmode="layer"
     id="layer1"
     transform="translate(0,-270.54165)">
    <rect
       style="opacity:1;fill:#ffc719;fill-opacity:1;stroke:none;stroke-width:0.6942544;stroke-linecap:round;stroke-linejoin:miter;stroke-miterlimit:4;stroke-dasharray:none;stroke-opacity:1"
       id="rect967"
       width="6.9425812"
       height="20.827522"
       x="18.223259"
       y="332.30121"
       rx="0"
       ry="0" />
    <rect
       ry="0"
       rx="0"
       y="339.24368"
       x="28.63711"
       height="13.88503"
       width="6.9425845"
       id="rect969"
       style="opacity:1;fill:#ffc719;fill-opacity:1;stroke:none;stroke-width:0.6942544;stroke-linecap:round;stroke-linejoin:miter;stroke-miterlimit:4;stroke-dasharray:none;stroke-opacity:1" />
    <rect
       style="opacity:1;fill:#ffc719;fill-opacity:1;stroke:none;stroke-width:0.6942544;stroke-linecap:round;stroke-linejoin:miter;stroke-miterlimit:4;stroke-dasharray:none;stroke-opacity:1"
       id="rect971"
       width="6.9425845"
       height="6.9424944"
       x="39.051003"
       y="346.18622"
       rx="0"
       ry="0" />
    <rect
       ry="0"
       rx="0"
       y="347.92184"
       x="49.464855"
       height="5.2068706"
       width="6.9425845"
       id="rect973"
       style="opacity:1;fill:#ffc719;fill-opacity:1;stroke:none;stroke-width:0.6942544;stroke-linecap:round;stroke-linejoin:miter;stroke-miterlimit:4;stroke-dasharray:none;stroke-opacity:1" />
    <rect
       ry="0"
       rx="0"
       y="344.45059"
       x="59.878727"
       height="8.678134"
       width="6.9425845"
       id="rect978"
       style="opacity:1;fill:#ffc719;fill-opacity:1;stroke:none;stroke-width:0.6942544;stroke-linecap:round;stroke-linejoin:miter;stroke-miterlimit:4;stroke-dasharray:none;stroke-opacity:1" />
    <rect
       style="opacity:1;fill:#ffc719;fill-opacity:1;stroke:none;stroke-width:0.6942544;stroke-linecap:round;stroke-linejoin:miter;stroke-miterlimit:4;stroke-dasharray:none;stroke-opacity:1"
       id="rect980"
       width="6.9425845"
       height="17.356249"
       x="70.292603"
       y="335.77246"
       rx="0"
       ry="0" />
    <rect
       ry="0"
       rx="0"
       y="308.00241"
       x="80.706467"
       height="45.126278"
       width="6.9425745"
       id="rect982"
       style="opacity:1;fill:#ffc719;fill-opacity:1;stroke:none;stroke-width:0.6942544;stroke-linecap:round;stroke-linejoin:miter;stroke-miterlimit:4;stroke-dasharray:none;stroke-opacity:1" />
    <rect
       style="opacity:1;fill:#366d9b;fill-opacity:1;stroke:none;stroke-width:0.6942544;stroke-linecap:round;stroke-linejoin:miter;stroke-miterlimit:4;stroke-dasharray:none;stroke-opacity:1"
       id="rect984"
       width="6.9425845"
       height="5.2068806"
       x="18.223259"
       y="347.92184" />
    <rect
       y="342.71497"
       x="28.63711"
       height="10.413741"
       width="6.9425745"
       id="rect986"
       style="opacity:1;fill:#366d9b;fill-opacity:1;stroke:none;stroke-width:0.6942544;stroke-linecap:round;stroke-linejoin:miter;stroke-miterlimit:4;stroke-dasharray:none;stroke-opacity:1" />
    <rect
       y="349.65747"
       x="49.464874"
       height="3.4712536"
       width="6.9425745"
       id="rect990"
       style="opacity:1;fill:#366d9b;fill-opacity:1;stroke:none;stroke-width:0.6942544;stroke-linecap:round;stroke-linejoin:miter;stroke-miterlimit:4;stroke-dasharray:none;stroke-opacity:1" />
    <rect
       style="opacity:1;fill:#366d9b;fill-opacity:1;stroke:none;stroke-width:0.6942544;stroke-linecap:round;stroke-linejoin:miter;stroke-miterlimit:4;stroke-dasharray:none;stroke-opacity:1"
       id="rect992"
       width="6.9425745"
       height="3.4712536"
       x="59.878742"
       y="349.65747" />
    <rect
       y="346.18622"
       x="70.292603"
       height="6.9425073"
       width="6.9425745"
       id="rect994"
       style="opacity:1;fill:#366d9b;fill-opacity:1;stroke:none;stroke-width:0.6942544;stroke-linecap:round;stroke-linejoin:miter;stroke-miterlimit:4;stroke-dasharray:none;stroke-opacity:1" />
    <rect
       style="opacity:1;fill:#366d9b;fill-opacity:1;stroke:none;stroke-width:0.6942544;stroke-linecap:round;stroke-linejoin:miter;stroke-miterlimit:4;stroke-dasharray:none;stroke-opacity:1"
       id="rect996"
       width="6.9425845"
       height="24.298777"
       x="80.706467"
       y="328.82993" />
    <path
       style="fill:none;stroke:#606060;stroke-width:1.73563612;stroke-linecap:round;stroke-linejoin:miter;stroke-miterlimit:4;stroke-dasharray:none;stroke-opacity:1"
       d="m 14.05771,290.64615 v 72.89632"
       id="path1010"
       inkscape:connector-curvature="0"
       sodipodi:nodetypes="cc" />
    <path
       style="fill:none;stroke:#606060;stroke-width:1.73563612;stroke-linecap:round;stroke-linejoin:miter;stroke-miterlimit:4;stroke-dasharray:none;stroke-opacity:1"
       d="M 7.8093867,357.29422 H 91.120359"
       id="path1012"
       inkscape:connector-curvature="0"
       sodipodi:nodetypes="cc" />
    <rect
       style="opacity:1;fill:#366d9b;fill-opacity:1;stroke:none;stroke-width:0.6942544;stroke-linecap:round;stroke-linejoin:miter;stroke-miterlimit:4;stroke-dasharray:none;stroke-opacity:1"
       id="rect1014"
       width="6.9425745"
       height="1.7356268"
       x="39.051003"
       y="351.3931" />
    <rect
       style="opacity:1;fill:#366d9b;fill-opacity:1;stroke:none;stroke-width:0.6942544;stroke-linecap:round;stroke-linejoin:miter;stroke-miterlimit:4;stroke-dasharray:none;stroke-opacity:1"
       id="rect1962"
       width="6.9425745"
       height="10.413741"
       x="28.63711"
       y="342.71497" />
    <rect
       style="opacity:1;fill:#366d9b;fill-opacity:1;stroke:none;stroke-width:0.6942544;stroke-linecap:round;stroke-linejoin:miter;stroke-miterlimit:4;stroke-dasharray:none;stroke-opacity:1"
       id="rect1964"
       width="6.9425745"
       height="3.4712536"
       x="49.464874"
       y="349.65747" />
    <rect
       y="328.82993"
       x="80.706467"
       height="24.298777"
       width="6.9425845"
       id="rect1970"
       style="opacity:1;fill:#366d9b;fill-opacity:1;stroke:none;stroke-width:0.6942544;stroke-linecap:round;stroke-linejoin:miter;stroke-miterlimit:4;stroke-dasharray:none;stroke-opacity:1" />
    <path
       sodipodi:nodetypes="cccsccccccccccccccccsccsccccccscccccc"
       inkscape:connector-curvature="0"
       d="m 55.075665,330.79857 c -1.232204,-0.34633 -1.669226,-1.8236 -0.824175,-2.78605 0.603053,-0.68683 1.759358,-0.72748 2.42966,-0.0854 0.351784,0.33698 0.511308,0.72047 0.511308,1.22914 0,0.36648 -0.02767,0.49796 -0.156507,0.74229 -0.387927,0.73597 -1.206617,1.11183 -1.960286,0.90001 z m -2.250133,3.43849 c 3.515946,-0.44631 5.652577,-1.57352 6.314594,-3.33132 0.129621,-0.34425 0.133822,-0.42629 0.151744,-2.98165 l 0.01836,-2.05061 h -4.872786 -4.872786 v -0.65164 -1.22871 l 7.378332,-0.0185 c 7.305769,-0.0184 7.382415,-0.0198 7.794013,-0.14375 1.171678,-0.35278 1.704789,-0.66222 2.509076,-1.45641 1.36445,-1.3473 2.144963,-3.41243 2.39677,-6.3416 0.08659,-1.00667 0.03595,-3.3831 -0.09328,-4.38593 -0.497294,-3.85612 -1.977056,-6.21904 -4.396775,-7.02096 -0.397109,-0.1316 -0.509273,-0.13872 -2.508931,-0.15929 l -2.093244,-0.0215 v 2.37307 c 0,2.47473 -0.04802,3.29244 -0.238255,4.06226 -0.277092,1.12103 -0.699302,1.88782 -1.448063,2.62993 -0.707671,0.70136 -1.335024,1.036 -2.470493,1.31784 -0.336118,0.0834 -1.13808,0.10076 -6.20554,0.13452 -6.305602,0.042 -5.914385,0.0214 -6.977499,0.36727 -1.47526,0.48004 -2.532835,1.46758 -3.025446,2.82511 -0.329544,0.90813 -0.329675,0.91098 -0.329675,6.57722 v 5.22564 l 0.159104,0.43557 c 0.234675,0.64241 0.497281,1.0472 1.028543,1.5854 1.336531,1.35399 3.369895,2.0678 6.739976,2.36603 0.676864,0.0598 4.337538,-0.0184 5.042297,-0.10784 z"
       style="fill:#ffc719;fill-opacity:1;stroke:none;stroke-width:1.44266224;stroke-miterlimit:4;stroke-dasharray:none;stroke-opacity:1"
       id="path4101" />
    <path
       sodipodi:nodetypes="cscccccccccsccscccccsccccccccccccccc"
       inkscape:connector-curvature="0"
       d="m 44.566856,301.76685 c -0.599668,-0.2792 -1.029039,-0.92524 -1.029039,-1.54827 0,-0.37577 0.205195,-0.87279 0.475185,-1.15099 0.325582,-0.33548 0.666973,-0.49442 1.134053,-0.52795 0.337326,-0.0243 0.443256,-0.005 0.760598,0.13732 0.699222,0.3138 1.056421,0.91817 1.00095,1.69357 -0.08213,1.14728 -1.307403,1.87791 -2.341747,1.39632 z m -4.710742,21.26939 c 2.6e-5,-1.28191 0.02703,-2.61595 0.06022,-2.96452 0.208303,-2.1966 1.195073,-3.8197 2.80624,-4.61588 0.334097,-0.1651 0.834595,-0.35931 1.112208,-0.43157 0.499068,-0.12989 0.570545,-0.13182 6.324289,-0.16863 6.289374,-0.0403 6.008557,-0.0257 7.036129,-0.36376 1.453717,-0.47821 2.544043,-1.48048 3.011515,-2.76832 0.351978,-0.96973 0.344383,-0.8272 0.344383,-6.45748 0,-5.75455 0.01836,-5.47305 -0.413223,-6.35599 -0.715176,-1.46335 -2.504275,-2.57391 -4.963483,-3.08107 -1.352776,-0.27899 -2.003414,-0.33935 -4.024275,-0.37341 -3.087244,-0.052 -4.997846,0.17781 -6.819038,0.82029 -1.68284,0.59367 -2.813968,1.56175 -3.169397,2.71247 -0.109944,0.35589 -0.117947,0.55582 -0.117947,2.95856 v 1.99981 h 4.869403 4.869401 v 1.22871 0.65164 l -7.378336,0.0164 -7.378321,0.0164 -0.534463,0.16722 c -2.553199,0.79888 -4.032776,2.93152 -4.613132,6.64928 -0.11598,0.74326 -0.131723,1.07383 -0.13175,2.77374 -2.6e-5,2.07622 0.05786,2.75917 0.351875,4.15172 0.545995,2.58589 1.740831,4.44002 3.407419,5.28755 0.813587,0.41375 1.189982,0.46546 3.435141,0.472 l 1.915102,0.005 z"
       style="fill:#366d9b;fill-opacity:1;stroke:none;stroke-width:1.44266224;stroke-miterlimit:4;stroke-dasharray:none;stroke-opacity:1"
       id="path4103" />
  </g>
</svg>
