<?xml version="1.0" encoding="UTF-8"?>
<svg width="100" height="100" version="1.1" viewBox="0 0 100 100" xmlns="http://www.w3.org/2000/svg">
 <g transform="translate(0 -270.54)">
  <g fill="#ffc719">
   <rect x="18.223" y="332.3" width="6.9426" height="20.828" rx="0" ry="0"/>
   <rect x="28.637" y="339.24" width="6.9426" height="13.885" rx="0" ry="0"/>
   <rect x="39.051" y="346.19" width="6.9426" height="6.9425" rx="0" ry="0"/>
   <rect x="49.465" y="347.92" width="6.9426" height="5.2069" rx="0" ry="0"/>
   <rect x="59.879" y="344.45" width="6.9426" height="8.6781" rx="0" ry="0"/>
   <rect x="70.293" y="335.77" width="6.9426" height="17.356" rx="0" ry="0"/>
   <rect x="80.706" y="308" width="6.9426" height="45.126" rx="0" ry="0"/>
  </g>
  <g fill="#366d9b">
   <rect x="18.223" y="347.92" width="6.9426" height="5.2069"/>
   <rect x="28.637" y="342.71" width="6.9426" height="10.414"/>
   <rect x="49.465" y="349.66" width="6.9426" height="3.4713"/>
   <rect x="59.879" y="349.66" width="6.9426" height="3.4713"/>
   <rect x="70.293" y="346.19" width="6.9426" height="6.9425"/>
   <rect x="80.706" y="328.83" width="6.9426" height="24.299"/>
  </g>
  <path d="m14.058 290.65v72.896" fill="none" stroke="#606060" stroke-linecap="round" stroke-width="1.7356"/>
  <path d="m7.8094 357.29h83.311" fill="none" stroke="#606060" stroke-linecap="round" stroke-width="1.7356"/>
  <g fill="#366d9b">
   <rect x="39.051" y="351.39" width="6.9426" height="1.7356"/>
   <rect x="28.637" y="342.71" width="6.9426" height="10.414"/>
   <rect x="49.465" y="349.66" width="6.9426" height="3.4713"/>
   <rect x="80.706" y="328.83" width="6.9426" height="24.299"/>
  </g>
  <path d="m55.076 330.8c-1.2322-0.34633-1.6692-1.8236-0.82418-2.786 0.60305-0.68683 1.7594-0.72748 2.4297-0.0854 0.35178 0.33698 0.51131 0.72047 0.51131 1.2291 0 0.36648-0.02767 0.49796-0.15651 0.74229-0.38793 0.73597-1.2066 1.1118-1.9603 0.90001zm-2.2501 3.4385c3.5159-0.44631 5.6526-1.5735 6.3146-3.3313 0.12962-0.34425 0.13382-0.42629 0.15174-2.9816l0.01836-2.0506h-9.7456v-1.8804l7.3783-0.0185c7.3058-0.0184 7.3824-0.0198 7.794-0.14375 1.1717-0.35278 1.7048-0.66222 2.5091-1.4564 1.3644-1.3473 2.145-3.4124 2.3968-6.3416 0.08659-1.0067 0.03595-3.3831-0.09328-4.3859-0.49729-3.8561-1.9771-6.219-4.3968-7.021-0.39711-0.1316-0.50927-0.13872-2.5089-0.15929l-2.0932-0.0215v2.3731c0 2.4747-0.04802 3.2924-0.23826 4.0623-0.27709 1.121-0.6993 1.8878-1.4481 2.6299-0.70767 0.70136-1.335 1.036-2.4705 1.3178-0.33612 0.0834-1.1381 0.10076-6.2055 0.13452-6.3056 0.042-5.9144 0.0214-6.9775 0.36727-1.4753 0.48004-2.5328 1.4676-3.0254 2.8251-0.32954 0.90813-0.32968 0.91098-0.32968 6.5772v5.2256l0.1591 0.43557c0.23468 0.64241 0.49728 1.0472 1.0285 1.5854 1.3365 1.354 3.3699 2.0678 6.74 2.366 0.67686 0.0598 4.3375-0.0184 5.0423-0.10784z" fill="#ffc719"/>
  <path d="m44.567 301.77c-0.59967-0.2792-1.029-0.92524-1.029-1.5483 0-0.37577 0.2052-0.87279 0.47518-1.151 0.32558-0.33548 0.66697-0.49442 1.1341-0.52795 0.33733-0.0243 0.44326-5e-3 0.7606 0.13732 0.69922 0.3138 1.0564 0.91817 1.001 1.6936-0.08213 1.1473-1.3074 1.8779-2.3417 1.3963zm-4.7107 21.269c2.6e-5 -1.2819 0.02703-2.616 0.06022-2.9645 0.2083-2.1966 1.1951-3.8197 2.8062-4.6159 0.3341-0.1651 0.8346-0.35931 1.1122-0.43157 0.49907-0.12989 0.57054-0.13182 6.3243-0.16863 6.2894-0.0403 6.0086-0.0257 7.0361-0.36376 1.4537-0.47821 2.544-1.4805 3.0115-2.7683 0.35198-0.96973 0.34438-0.8272 0.34438-6.4575 0-5.7546 0.01836-5.473-0.41322-6.356-0.71518-1.4634-2.5043-2.5739-4.9635-3.0811-1.3528-0.27899-2.0034-0.33935-4.0243-0.37341-3.0872-0.052-4.9978 0.17781-6.819 0.82029-1.6828 0.59367-2.814 1.5618-3.1694 2.7125-0.10994 0.35589-0.11795 0.55582-0.11795 2.9586v1.9998h9.7388v1.8804l-14.757 0.0328-0.53446 0.16722c-2.5532 0.79888-4.0328 2.9315-4.6131 6.6493-0.11598 0.74326-0.13172 1.0738-0.13175 2.7737-2.6e-5 2.0762 0.05786 2.7592 0.35188 4.1517 0.546 2.5859 1.7408 4.44 3.4074 5.2876 0.81359 0.41375 1.19 0.46546 3.4351 0.472l1.9151 5e-3z" fill="#366d9b"/>
 </g>
</svg>
