<?xml version="1.0" encoding="UTF-8"?>
<svg width="100" height="100" version="1.1" viewBox="0 0 100 100" xmlns="http://www.w3.org/2000/svg">
 <g transform="translate(0 -270.54)">
  <g transform="matrix(.34713 0 0 .34713 32.108 217.38)" fill="none" stroke="#606060">
   <g stroke-linecap="round" stroke-width="5">
    <rect x="-10" y="351.06" width="20" height="40" rx="0" ry="0"/>
    <rect x="20" y="371.06" width="20" height="20" rx="0" ry="0"/>
    <rect x="50" y="376.06" width="20" height="15" rx="0" ry="0"/>
    <rect x="80" y="366.06" width="20" height="25" rx="0" ry="0"/>
    <rect x="110" y="341.06" width="20" height="50" rx="0" ry="0"/>
    <rect x="140" y="261.06" width="20" height="130" rx="0" ry="0"/>
   </g>
   <path d="m66.163 326.73c-3.5497-0.99768-4.8087-5.2534-2.3743-8.026 1.7373-1.9786 5.0683-2.0957 6.9993-0.24605 1.0134 0.97077 1.473 2.0755 1.473 3.5409 0 1.0557-0.0797 1.4345-0.45086 2.1384-1.1175 2.1202-3.476 3.203-5.6471 2.5928zm-6.4821 9.9056c10.129-1.2857 16.284-4.533 18.191-9.5969 0.37341-0.99171 0.38551-1.228 0.43714-8.5895l0.0529-5.9074h-28.075v-5.4169l21.255-0.0533c21.046-0.0529 21.267-0.0571 22.453-0.41412 3.3753-1.0163 4.9111-1.9077 7.2281-4.1956 3.9307-3.8813 6.1792-9.8306 6.9046-18.269 0.24945-2.9 0.10356-9.746-0.26872-12.635-1.4326-11.109-5.6954-17.916-12.666-20.226-1.144-0.37912-1.4671-0.39965-7.2277-0.45891l-6.0302-0.062v6.8363c0 7.1292-0.13833 9.4849-0.68636 11.703-0.79824 3.2295-2.0145 5.4384-4.1715 7.5763-2.0386 2.0205-3.8459 2.9846-7.1169 3.7965-0.96828 0.24038-3.2786 0.29027-17.877 0.38752-18.165 0.12094-17.038 0.0616-20.101 1.058-4.2499 1.3829-7.2965 4.2278-8.7156 8.1386-0.94934 2.6162-0.94972 2.6244-0.94972 18.948v15.054l0.45834 1.2548c0.67604 1.8506 1.4326 3.0168 2.963 4.5672 3.8502 3.9006 9.7079 5.9569 19.416 6.8161 1.9499 0.17234 12.495-0.0529 14.526-0.31068z" stroke-width="4.156"/>
   <path d="m35.89 243.1c-1.7275-0.80432-2.9644-2.6654-2.9644-4.4603 0-1.0825 0.59112-2.5143 1.3689-3.3158 0.93793-0.96646 1.9214-1.4243 3.267-1.5209 0.97176-0.0699 1.2769-0.0151 2.1911 0.39561 2.0143 0.90398 3.0433 2.6451 2.8835 4.8788-0.2366 3.3051-3.7663 5.4099-6.746 4.0225zm-13.571 61.273c7.5e-5 -3.6929 0.07786-7.536 0.17348-8.5402 0.60008-6.328 3.4427-11.004 8.0841-13.297 0.96246-0.47562 2.4043-1.0351 3.204-1.2433 1.4377-0.37417 1.6436-0.37973 18.219-0.48578 18.118-0.11603 17.309-0.0741 20.269-1.0479 4.1878-1.3776 7.3288-4.265 8.6755-7.975 1.014-2.7936 0.99209-2.383 0.99209-18.603 0-16.578 0.0529-15.767-1.1904-18.31-2.0603-4.2156-7.2142-7.4149-14.299-8.876-3.897-0.80371-5.7714-0.97761-11.593-1.0757-8.8936-0.14968-14.398 0.51223-19.644 2.3631-4.8479 1.7102-8.1064 4.4991-9.1303 7.8141-0.31672 1.0252-0.33978 1.6012-0.33978 8.523v5.7611h28.055v5.4169l-42.511 0.0944-1.5397 0.48174c-7.3552 2.3014-11.618 8.4451-13.289 19.155-0.33411 2.1412-0.37946 3.0935-0.37954 7.9906-7.5e-5 5.9812 0.16668 7.9486 1.0137 11.96 1.5729 7.4494 5.0149 12.791 9.816 15.232 2.3438 1.1919 3.4281 1.3409 9.8959 1.3597l5.517 0.0151z" stroke-width="4.156"/>
   <g stroke-linecap="round" stroke-width="5">
    <rect x="-40" y="331.06" width="20" height="60" rx="0" ry="0"/>
    <path d="m-52 211.06v210"/>
    <path d="m-70 403.06h240"/>
   </g>
  </g>
 </g>
</svg>
