<?xml version="1.0" encoding="UTF-8"?>
<svg width="100" height="100" version="1.1" viewBox="0 0 100 100" xmlns="http://www.w3.org/2000/svg">
 <g transform="translate(0 -270.54)">
  <g transform="matrix(.33315 0 0 .33315 32.206 217.94)">
   <g>
    <circle cx="55" cy="275.54" r="70" fill="#fff"/>
    <circle cx="50.469" cy="279.01" r="64.531" fill="#ffe4c0"/>
    <path d="m125.04 265.54s10-4e-5 10 10c-4e-5 10-10 10-10 10" fill="#ffe4ad" stroke="#606060" stroke-linecap="round" stroke-width="5"/>
    <path d="m-15 265.54s-10-4e-5 -10 10c3.8e-5 10 10 10 10 10" fill="#ffe4ad" stroke="#606060" stroke-linecap="round" stroke-width="5"/>
   </g>
   <circle cx="55" cy="275.54" r="70" fill="none" stroke="#606060" stroke-linecap="round" stroke-width="5"/>
   <g>
    <circle cx="55" cy="203.54" r="10" fill="#fff"/>
    <path d="m-25 325.54h160c5.54 0 10.687 4.5028 10 10l-10 80c-0.68715 5.4972-4.46 10-10 10h-140c-5.54 0-9.3129-4.5028-10-10l-10-80c-0.68716-5.4972 4.46-10 10-10z" fill="#fff"/>
    <path d="m-25.401 333.28h153.62c5.3191 0 10.261 4.1545 9.6013 9.2266l-9.6013 73.813c-0.65976 5.072-4.2822 9.2266-9.6013 9.2266h-134.42c-5.3191 0-8.9416-4.1546-9.6013-9.2266l-9.6013-73.813c-0.65975-5.0721 4.2822-9.2266 9.6013-9.2266z" fill="#9898ff"/>
   </g>
   <g fill="none" stroke="#606060" stroke-linecap="round">
    <g>
     <path d="m25 272.54v6" stroke-width="6"/>
     <path d="m85 272.54v6" stroke-width="6"/>
     <path d="m50 290.54s0-5 5-5c5 0 5 5 5 5" stroke-width="5"/>
     <path d="m40 305.54c-0.49581 0.17537 4 10 15 10s15-10 15-10" stroke-width="5"/>
    </g>
    <path d="m-25 325.54h160c5.54 0 10.687 4.5028 10 10l-10 80c-0.68715 5.4972-4.46 10-10 10h-140c-5.54 0-9.3129-4.5028-10-10l-10-80c-0.68716-5.4972 4.46-10 10-10z" stroke-width="5"/>
   </g>
   <path d="m-62.561 362.34c-6.2721 6.0822-7.1816 14.293-3.4139 24.846 3.7677 10.554 18.426 24.95 28.712 28.295 10.287 3.3452 22.262-2.0925 19.29-12.683-2.972-10.591-9.8538-8.4149-14.481-17.503-4.6274-9.0878 2.5735-11.696-2.1716-24.906-4.7452-13.209-21.664-4.1317-27.936 1.9504z" fill="#fff"/>
   <path d="m-63.649 368.73c-5.0639 5.3641-5.7982 12.605-2.7563 21.913 3.042 9.3078 14.877 22.004 23.182 24.954 8.3051 2.9503 17.974-1.8454 15.575-11.186-2.3995-9.3405-7.9557-7.4214-11.692-15.436s2.0778-10.315-1.7533-21.965c-3.8312-11.65-17.491-3.6439-22.555 1.7201z" fill="#ffe4c0"/>
   <path d="m-62.561 362.34c-6.2721 6.0822-7.1816 14.293-3.4139 24.846 3.7677 10.554 18.426 24.95 28.712 28.295 10.287 3.3452 22.262-2.0925 19.29-12.683-2.972-10.591-9.8538-8.4149-14.481-17.503-4.6274-9.0878 2.5735-11.696-2.1716-24.906-4.7452-13.209-21.664-4.1317-27.936 1.9504z" fill="none" stroke="#606060" stroke-width="5"/>
   <g fill="#606060">
    <ellipse transform="rotate(-3.9858)" cx="-72.202" cy="338.08" rx="6" ry="6"/>
    <ellipse transform="rotate(-3.9858)" cx="-84.604" cy="343.06" rx="5.1211" ry="5.1211"/>
    <ellipse transform="rotate(-3.9858)" cx="-93.686" cy="350.78" rx="4.2422" ry="4.2422"/>
    <ellipse transform="rotate(-3.9858)" cx="-99.155" cy="359.56" rx="3.2656" ry="3.2656"/>
    <ellipse transform="rotate(-3.9858)" cx="-100.52" cy="368.35" rx="2.2891" ry="2.2891"/>
   </g>
   <path d="m168.8 368.58c6.6797 5.6315 8.1577 13.759 5.1327 24.549-3.025 10.79-16.647 26.17-26.676 30.222-10.029 4.0521-22.354-0.54002-20.125-11.312 2.2286-10.772 9.245-9.0795 13.23-18.467 3.9845-9.3874-3.3803-11.489 0.43517-24.996 3.8156-13.507 21.324-5.6276 28.004 4e-3z" fill="#fff"/>
   <path d="m160.93 370.72c5.1086 5.1825 6.2389 12.662 3.9254 22.592-2.3135 9.9298-12.731 24.083-20.402 27.813-7.6702 3.729-17.096-0.49701-15.392-10.41 1.7044-9.9131 7.0705-8.3556 10.118-16.994 3.0473-8.639-2.5852-10.573 0.33286-23.003 2.9181-12.43 16.309-5.1789 21.417 3e-3z" fill="#ffe4c0"/>
   <path d="m168.8 368.58c6.6797 5.6315 8.1577 13.759 5.1327 24.549-3.025 10.79-16.647 26.17-26.676 30.222-10.029 4.0521-22.354-0.54002-20.125-11.312 2.2286-10.772 9.245-9.0795 13.23-18.467 3.9845-9.3874-3.3803-11.489 0.43517-24.996 3.8156-13.507 21.324-5.6276 28.004 4e-3z" fill="none" stroke="#606060" stroke-width="5"/>
   <g fill="#606060">
    <ellipse transform="scale(-1,1)" cx="-153.4" cy="349.54" rx="6" ry="6"/>
    <ellipse transform="scale(-1,1)" cx="-165.81" cy="354.52" rx="5.1211" ry="5.1211"/>
    <ellipse transform="scale(-1,1)" cx="-174.89" cy="362.24" rx="4.2422" ry="4.2422"/>
    <ellipse transform="scale(-1,1)" cx="-180.36" cy="371.03" rx="3.2656" ry="3.2656"/>
    <ellipse transform="scale(-1,1)" cx="-181.72" cy="379.81" rx="2.2891" ry="2.2891"/>
   </g>
   <ellipse cx="52" cy="205.54" rx="7" ry="8" fill="#ff7b7b"/>
   <circle cx="55" cy="203.54" r="10" fill="none" stroke="#606060" stroke-linecap="round" stroke-width="5"/>
   <path d="m65 198.54 26-8c5.7637-2.0536 9 0.99999 9 6v14.129c0 2.8711-3 7.8711-9 5.8711l-26-8z" fill="#fff"/>
   <path d="m65 202.4 22.373-6.3284c4.9596-1.6245 7.7444 0.79102 7.7444 4.7463v11.177c0 2.2712-2.5815 6.2264-7.7444 4.6444l-22.373-6.3285z" fill="#ff7b7b"/>
   <path d="m65 198.54 26-8c5.7637-2.0536 9 0.99999 9 6v14.129c0 2.8711-3 7.8711-9 5.8711l-26-8z" fill="none" stroke="#606060" stroke-linejoin="round" stroke-width="4"/>
   <path d="m44 198.54-26-8c-5.7637-2.0536-9 0.99999-9 6v14.129c0 2.8711 3 7.8711 9 5.8711l26-8z" fill="#fff"/>
   <path d="m44 202.49-26-6.2882c-5.7637-1.6142-9 0.786-9 4.7161v11.106c0 2.2568 3 6.1868 9 4.6148l26-6.2882z" fill="#ff7b7b"/>
   <path d="m44 198.54-26-8c-5.7637-2.0536-9 0.99999-9 6v14.129c0 2.8711 3 7.8711 9 5.8711l26-8z" fill="none" stroke="#606060" stroke-linejoin="round" stroke-width="4"/>
   <path d="m40.375 364.54 1.0003 20h9.0004v10.001h18.25l1.0004-20h-9.2507v-10.001z" fill="#7c7c7c"/>
  </g>
 </g>
</svg>
