<?xml version="1.0" encoding="UTF-8"?>
<svg width="100" height="100" version="1.1" viewBox="0 0 100 100" xmlns="http://www.w3.org/2000/svg">
 <g transform="translate(0 -270.54)">
  <path d="m39.471 282.02c-0.9068 2.8615-1.9901 7.6614-3.2946 11.314-4.4992 13.209-11.326 25.82-21.585 34.11-1.2439 1.2772-5.7427 6.6939-4.0275 1.3329-0.38946-3.1146-9.0387-3.6649-4.7304-8.264 4.1789-7.1276 9.7419-13.014 15.388-18.603 7.1571-7.6431 14.692-14.807 22.367-21.749 2.3655-0.49997 6.2789-7.3288 7.7519-4.2363-2.0089 4.6874 5.0642 5.757 5.4583 7.4117-3.2096 4.5299-6.8397 8.7928-9.7077 13.698-3.8788 5.8819-7.1621 12.244-11.133 18.056-4.0345 6.7838-9.2227 13.565-16.274 16.012 1.3018 0.21702-2.0328 0.84553-2.0441-1.5085-2.0696-3.2346-4.7505-7.448-0.63762-10.193 2.9148-3.8453 5.8068-7.7038 9.2563-10.954 5.4973-6.1445 11.903-11.074 17.336-17.294 3.2795-3.7285 6.235-8.1784 10.635-10.235 1.0424 3.6474 5.1722 5.0185 6.5736 8.6178-0.46984 4.8899-3.7098 9.1843-5.9689 13.372-6.1814 10.737-12.553 21.378-19.665 31.337-4.6273 6.436-9.6386 12.464-14.192 18.969-2.7738 4.8827-8.7982 4.8126-11.198-0.37908 0.01319-4.8964 4.1053-7.9149 6.5605-11.429 8.4937-11.411 16.374-23.798 27.12-32.613 3.7288-2.7929 8.2022-5.4791 12.691-4.8646-3.8723 1.7854-3.8433 8.5498 1.207 7.8101 4.68 1.18-1.7845 7.645-2.2225 10.776-5.242 10.609-11.912 20.423-20.369 27.903-1.3414 1.4776-5.9293 3.4555-5.0242 3.2395-3.2712 1.9342-2.9947-0.34805-2.1662-3.1419 0.27354-4.8734-8.6595-1.6351-4.0088-6.5228 4.7598-7.8606 9.5785-16.073 16.83-21.202 7.5776-5.9749 13.326-14.345 20.457-20.939 1.3361-1.4746 7.5854-7.1098 4.6778-1.8097-1.8585 2.509-3.5512 9.429 1.4381 6.363 1.8323-1.5534 7.6627-2.4132 3.2959 0.85514-2.076 2.0554-5.4511 5.1893-7.0884 8.8735-5.5551 9.9893-9.9112 21.239-17.743 29.27-2.4474 3.7424-5.7055 3.1674-7.2202-0.92985-2.1108-2.7158-4.7434-5.3677-0.84606-7.9443 7.8892-9.075 17.492-15.842 26.745-22.908 5.0804-3.4434 9.2474-8.8503 14.586-11.59-0.05172 4.0675 9.3529 6.1888 3.9375 10.458-2.6138 5.5339-5.7482 10.722-7.9066 16.528-4.7841 9.8788-10.511 19.215-17.063 27.655-4.3333 4.646-8.9407 9.4976-14.791 11.371-3.4241-1.049-9.7397-3.9371-6.5912-9.0182 1.8522-6.8581 6.8717-11.548 10.571-17.064 10.364-12.365 23.169-21.964 37.059-28.269 2.5738-0.99848 5.3146-2.8005 4.8429 1.5355 2.4763 2.3927 5.7653 6.0775 1.2988 8.4382-10.045 9.0417-14.288 23.696-23.454 33.627-2.8345 4.6742-5.8692-1.1539-8.4718-3.1851-2.9856-2.1919 1.8588-8.8522 4.2356-4.5855 2.8102 1.9716 7.8372 4.8369 3.2262 8.3404-2.7839 2.8327-6.2912-2.7716-9.1971-3.8179 1.1281-6.2713 4.157-11.913 7.0741-17.297 4.7437-8.4721 10.756-16.031 17.705-22.178 3.2805-2.3068 7.668-6.6917 11.525-4.1408 3.3032 2.2609 6.5739 6.5609 3.6916 10.949-2.8777 6.9693-9.0436 10.883-14.064 15.581-9.2089 7.9494-19.628 13.701-29.508 20.414-3.001 1.9418-7.2266 9.8396-9.5135 4.1121-2.5186-0.94975-8.3387-2.4319-4.0468-5.9147 7.274-11.186 12.718-23.804 20.201-34.811 5.3877-6.657 10.335-14.155 17.533-18.395 3.3063-3.3473 6.3621 1.8544 9.2014 3.5769 0.99565 5.1237-4.1687 9.6154-7.0881 13.236-5.5512 5.5423-11.619 10.416-17.279 15.833-5.4579 4.3623-10.929 8.9318-17.021 12.059-3.6039 1.6258-7.1718 3.7852-9.2027-1.6851-4.0389-3.5493-1.1999-8.5363 1.4511-11.991 4.0429-6.0715 8.8268-11.522 12.072-18.263 3.9295-7.2465 8.8671-14.234 15.623-18.163 3.5737-2.7398 7.7864-2.4034 9.0532 3.0796 3.3109 4.5595-1.0705 9.8839-3.3642 13.722-6.3422 9.6992-15.266 16.416-23.527 23.734-5.7482 4.7428-10.989 10.25-16.551 15.266-2.6507 4.1794-8.2319 4.9531-10.925 0.55187-1.6275-5.5718 2.9329-9.9181 6.1661-13.195 3.916-3.803 7.8274-7.6317 10.743-12.537 5.2612-6.7927 8.6899-15.293 14.805-21.251 2.4217-3.9529 11.093-3.7342 10.02 2.5645-0.72224 3.4192-3.052 3.8151-3.7883 6.4661-5.5776 6.5642-11.277 13.021-17.075 19.336-6.7829 6.5853-12.685 14.6-20.556 19.549-3.8012 2.6301 0.82706-1.6761-2.4559-2.8589-2.1143-2.2656-8.6192-1.6216-4.6444-5.7391 5.5747-13.307 13.107-25.339 19.816-37.897 4.3788-7.7303 9.4589-14.986 15.171-21.465 3.0155-4.629 7.692-5.9747 11.96-2.438 5.7171 2.7414 0.6084 9.2739-1.8814 12.503-5.0678 5.8324-9.9452 11.892-15.55 17.069-6.1978 6.0782-12.335 12.528-19.835 16.451-3.2713 2.0704-4.7561-4.8448-7.3237-6.4936-2.7528 1.1609 3.236-1.8564 1.1698-1.1989 2.6775-6.524 5.5149-13.114 9.5988-18.711 5.8316-8.8323 11.796-17.677 18.863-25.262 3.4278-2.7006 7.8208-6.9923 12.173-4.3313 4.8228 1.3627 3.8441 7.9344 2.115 11.78-5.6032 9.9305-14.35 16.655-22.117 24.171-5.0683 4.5933-10.495 8.6174-15.425 13.405-4.0275 2.7213-7.6588 8.7085-12.497 8.3112-3.3411-1.2508-8.4014-2.2004-5.553-7.4281 2.7925-4.7634 3.457-5.7932 6.7434-10.659 4.3144-7.5019 7.4044-15.847 12.072-23.102 2.746-4.6735 5.8656-9.1282 9.4122-13.019 2.4577-0.79618 6.05 2.8725 7.9067 4.6769z" fill="#fff" opacity=".99" stroke-linecap="round" stroke-linejoin="round" stroke-width="12.74"/>
  <text x="36.970425" y="198.81966" fill="#ffffff" font-family="sans-serif" font-size="20.324px" letter-spacing="0px" stroke-width=".5081" word-spacing="0px" style="line-height:1.25" xml:space="preserve"><tspan x="36.970425" y="198.81966" fill="#ffffff" font-family="Lato" font-weight="900" stroke-width=".5081">12</tspan></text>
 </g>
</svg>
