<?xml version="1.0" encoding="UTF-8"?>
<svg width="100" height="100" version="1.1" viewBox="0 0 100 100" xmlns="http://www.w3.org/2000/svg">
 <g transform="translate(0 -270.54)">
  <g transform="matrix(.33315 0 0 .33315 29.773 217.09)">
   <g fill="#fff">
    <circle cx="62.302" cy="278.11" r="70"/>
    <path d="m132.34 268.11s10-4e-5 10 10c-4e-5 10-10 10-10 10" stroke="#606060" stroke-linecap="round" stroke-width="5"/>
    <path d="m-7.6984 268.11s-10-4e-5 -10 10c3.8e-5 10 10 10 10 10" stroke="#606060" stroke-linecap="round" stroke-width="5"/>
   </g>
   <circle cx="62.302" cy="278.11" r="70" fill="none" stroke="#606060" stroke-linecap="round" stroke-width="5"/>
   <circle cx="62.302" cy="206.11" r="10" fill="#fff"/>
   <path d="m-17.698 328.11h160c5.54 0 10.687 4.5028 10 10l-10 80c-0.68715 5.4972-4.46 10-10 10h-140c-5.54 0-9.3129-4.5028-10-10l-10-80c-0.68716-5.4972 4.46-10 10-10z" fill="#fff"/>
   <g fill="none" stroke="#606060" stroke-linecap="round">
    <g>
     <path d="m32.302 275.11v6" stroke-width="6"/>
     <path d="m92.302 275.11v6" stroke-width="6"/>
     <path d="m57.302 293.11s0-5 5-5c5 0 5 5 5 5" stroke-width="5"/>
     <path d="m47.302 308.11c-0.49581 0.17537 4 10 15 10 11 0 15-10 15-10" stroke-width="5"/>
    </g>
    <path d="m-17.698 328.11h160c5.54 0 10.687 4.5028 10 10l-10 80c-0.68715 5.4972-4.46 10-10 10h-140c-5.54 0-9.3129-4.5028-10-10l-10-80c-0.68716-5.4972 4.46-10 10-10z" stroke-width="5"/>
   </g>
   <path d="m-55.259 364.91c-6.2721 6.0822-7.1816 14.293-3.4139 24.846 3.7677 10.554 18.426 24.95 28.712 28.295 10.287 3.3452 22.262-2.0925 19.29-12.683-2.972-10.591-9.8538-8.4149-14.481-17.503-4.6274-9.0878 2.5735-11.696-2.1716-24.906-4.7452-13.209-21.664-4.1317-27.936 1.9504z" fill="#fff"/>
   <path d="m-55.259 364.91c-6.2721 6.0822-7.1816 14.293-3.4139 24.846 3.7677 10.554 18.426 24.95 28.712 28.295 10.287 3.3452 22.262-2.0925 19.29-12.683-2.972-10.591-9.8538-8.4149-14.481-17.503-4.6274-9.0878 2.5735-11.696-2.1716-24.906-4.7452-13.209-21.664-4.1317-27.936 1.9504z" fill="none" stroke="#606060" stroke-width="5"/>
   <g fill="#606060">
    <ellipse transform="rotate(-3.9858)" cx="-65.096" cy="341.15" rx="6" ry="6"/>
    <ellipse transform="rotate(-3.9858)" cx="-77.499" cy="346.13" rx="5.1211" ry="5.1211"/>
    <ellipse transform="rotate(-3.9858)" cx="-86.581" cy="353.84" rx="4.2422" ry="4.2422"/>
    <ellipse transform="rotate(-3.9858)" cx="-92.05" cy="362.63" rx="3.2656" ry="3.2656"/>
    <ellipse transform="rotate(-3.9858)" cx="-93.417" cy="371.42" rx="2.2891" ry="2.2891"/>
   </g>
   <path d="m176.1 371.15c6.6797 5.6315 8.1577 13.759 5.1327 24.549-3.025 10.79-16.647 26.17-26.676 30.222-10.029 4.0521-22.354-0.54002-20.125-11.312 2.2286-10.772 9.245-9.0795 13.23-18.467 3.9845-9.3874-3.3803-11.489 0.43518-24.996 3.8156-13.507 21.324-5.6276 28.004 4e-3z" fill="#fff"/>
   <path d="m176.1 371.15c6.6797 5.6315 8.1577 13.759 5.1327 24.549-3.025 10.79-16.647 26.17-26.676 30.222-10.029 4.0521-22.354-0.54002-20.125-11.312 2.2286-10.772 9.245-9.0795 13.23-18.467 3.9845-9.3874-3.3803-11.489 0.43518-24.996 3.8156-13.507 21.324-5.6276 28.004 4e-3z" fill="none" stroke="#606060" stroke-width="5"/>
   <g fill="#606060">
    <ellipse transform="scale(-1,1)" cx="-160.71" cy="352.11" rx="6" ry="6"/>
    <ellipse transform="scale(-1,1)" cx="-173.11" cy="357.09" rx="5.1211" ry="5.1211"/>
    <ellipse transform="scale(-1,1)" cx="-182.19" cy="364.8" rx="4.2422" ry="4.2422"/>
    <ellipse transform="scale(-1,1)" cx="-187.66" cy="373.59" rx="3.2656" ry="3.2656"/>
    <ellipse transform="scale(-1,1)" cx="-189.03" cy="382.38" rx="2.2891" ry="2.2891"/>
   </g>
   <circle cx="62.302" cy="206.11" r="10" fill="none" stroke="#606060" stroke-linecap="round" stroke-width="5"/>
   <path d="m72.302 201.11 26-8c5.7637-2.0536 9 0.99999 9 6v14.129c0 2.8711-3 7.8711-9 5.8711l-26-8z" fill="#fff"/>
   <path d="m72.302 201.11 26-8c5.7637-2.0536 9 0.99999 9 6v14.129c0 2.8711-3 7.8711-9 5.8711l-26-8z" fill="none" stroke="#606060" stroke-linejoin="round" stroke-width="4"/>
   <path d="m51.302 201.11-26-8c-5.7637-2.0536-9 0.99999-9 6v14.129c0 2.8711 3 7.8711 9 5.8711l26-8z" fill="#fff"/>
   <path d="m51.302 201.11-26-8c-5.7637-2.0536-9 0.99999-9 6v14.129c0 2.8711 3 7.8711 9 5.8711l26-8z" fill="none" stroke="#606060" stroke-linejoin="round" stroke-width="4"/>
   <path d="m47.676 367.11 1.0003 20h9.0004v10.001h18.25l1.0004-20h-9.2507v-10.001z" fill="none" stroke="#606060" stroke-linecap="round" stroke-linejoin="round" stroke-width="4"/>
  </g>
 </g>
</svg>
